<svg width="60" height="80" viewBox="0 0 60 80" xmlns="http://www.w3.org/2000/svg">
  <!-- Bierglas -->
  <path d="M18 70 L18 25 Q18 20 23 20 L37 20 Q42 20 42 25 L42 70 Q42 75 37 75 L23 75 Q18 75 18 70 Z" 
        fill="#FFF3E0" stroke="#FF8F00" stroke-width="2"/>
  <!-- Bier -->
  <path d="M20 68 L20 27 Q20 23 24 23 L36 23 Q40 23 40 27 L40 68 Q40 71 36 71 L24 71 Q20 71 20 68 Z" 
        fill="#FFC107"/>
  <!-- Schaum -->
  <ellipse cx="30" cy="23" rx="10" ry="6" fill="#FFFFFF"/>
  <circle cx="25" cy="17" r="3" fill="#FFFFFF"/>
  <circle cx="35" cy="15" r="4" fill="#FFFFFF"/>
  <circle cx="30" cy="12" r="2.5" fill="#FFFFFF"/>
  <!-- Henkel -->
  <path d="M42 35 Q52 35 52 45 Q52 55 42 55" 
        fill="none" stroke="#FF8F00" stroke-width="3"/>
  <!-- Bläschen im Bier -->
  <circle cx="25" cy="40" r="1" fill="#FFFFFF" opacity="0.6"/>
  <circle cx="35" cy="45" r="1" fill="#FFFFFF" opacity="0.6"/>
  <circle cx="28" cy="55" r="1" fill="#FFFFFF" opacity="0.6"/>
  <circle cx="33" cy="60" r="1" fill="#FFFFFF" opacity="0.6"/>
</svg>